HIERARCHY
ROOT pelvis
{
	OFFSET 0.003123 -0.351407 0.012037
	CHANNELS 6 Xposition Yposition Zposition Zrotation Yrotation Xrotation 
	JOINT left_hip
	{
		OFFSET 0.058189 -0.092763 -0.026001
		CHANNELS 3 Zrotation Yrotation Xrotation
		JOINT left_knee
		{
			OFFSET 0.054695 -0.378753 -0.009396
			CHANNELS 3 Zrotation Yrotation Xrotation
			JOINT left_ankle
			{
				OFFSET -0.043453 -0.403059 -0.031876
				CHANNELS 3 Zrotation Yrotation Xrotation
				JOINT left_foot
				{
					OFFSET 0.047257 -0.057997 0.118216
					CHANNELS 3 Zrotation Yrotation Xrotation
					End Site
					{
						OFFSET 0.000000 0.000000 0.000000
					}
				}
			}
		}
	}
	JOINT right_hip
	{
		OFFSET -0.063267 -0.103908 -0.021250
		CHANNELS 3 Zrotation Yrotation Xrotation
		JOINT right_knee
		{
			OFFSET -0.044210 -0.362380 -0.016824
			CHANNELS 3 Zrotation Yrotation Xrotation
			JOINT right_ankle
			{
				OFFSET 0.015417 -0.410728 -0.020192
				CHANNELS 3 Zrotation Yrotation Xrotation
				JOINT right_foot
				{
					OFFSET -0.038812 -0.058328 0.119049
					CHANNELS 3 Zrotation Yrotation Xrotation
					End Site
					{
						OFFSET 0.000000 0.000000 0.000000
					}
				}
			}
		}
	}
	JOINT spine_1
	{
		OFFSET -0.002763 0.109891 -0.027618
		CHANNELS 3 Zrotation Yrotation Xrotation
		JOINT spine_2
		{
			OFFSET 0.009448 0.131853 -0.005940
			CHANNELS 3 Zrotation Yrotation Xrotation
			JOINT spine_3
			{
				OFFSET -0.011330 0.052235 0.028447
				CHANNELS 3 Zrotation Yrotation Xrotation
				JOINT neck
				{
					OFFSET -0.012164 0.165167 -0.031615
					CHANNELS 3 Zrotation Yrotation Xrotation
					JOINT head
					{
						OFFSET 0.024783 0.160452 0.020737
						CHANNELS 3 Zrotation Yrotation Xrotation
						End Site
						{
							OFFSET 0.000000 0.000000 0.000000
						}
					}
				}
				JOINT left_collar
				{
					OFFSET 0.046364 0.084944 -0.007220
					CHANNELS 3 Zrotation Yrotation Xrotation
					JOINT left_shoulder
					{
						OFFSET 0.119239 0.057728 -0.015461
						CHANNELS 3 Zrotation Yrotation Xrotation
						JOINT left_elbow
						{
							OFFSET 0.254123 -0.072151 -0.042459
							CHANNELS 3 Zrotation Yrotation Xrotation
							JOINT left_wrist
							{
								OFFSET 0.251987 0.023221 -0.002472
								CHANNELS 3 Zrotation Yrotation Xrotation
								JOINT left_index_1
								{
									OFFSET 0.101902 -0.008688 0.019351
									CHANNELS 3 Zrotation Yrotation Xrotation
									JOINT left_index_2
									{
										OFFSET 0.030149 -0.011154 0.001151
										CHANNELS 3 Zrotation Yrotation Xrotation
										JOINT left_index_3
										{
											OFFSET 0.006504 -0.021577 -0.002433
											CHANNELS 3 Zrotation Yrotation Xrotation
											End Site
											{
												OFFSET 0.000000 0.000000 0.000000
											}
										}
									}
								}
								JOINT left_middle_1
								{
									OFFSET 0.109398 -0.006328 -0.003981
									CHANNELS 3 Zrotation Yrotation Xrotation
									JOINT left_middle_2
									{
										OFFSET 0.026472 -0.015218 -0.004641
										CHANNELS 3 Zrotation Yrotation Xrotation
										JOINT left_middle_3
										{
											OFFSET 0.005022 -0.023347 -0.001911
											CHANNELS 3 Zrotation Yrotation Xrotation
											End Site
											{
												OFFSET 0.000000 0.000000 0.000000
											}
										}
									}
								}
								JOINT left_pinky_1
								{
									OFFSET 0.084047 -0.014539 -0.043750
									CHANNELS 3 Zrotation Yrotation Xrotation
									JOINT left_pinky_2
									{
										OFFSET 0.012124 -0.014448 -0.005375
										CHANNELS 3 Zrotation Yrotation Xrotation
										JOINT left_pinky_3
										{
											OFFSET 0.003798 -0.018853 0.000167
											CHANNELS 3 Zrotation Yrotation Xrotation
											End Site
											{
												OFFSET 0.000000 0.000000 0.000000
											}
										}
									}
								}
								JOINT left_ring_1
								{
									OFFSET 0.097444 -0.009268 -0.027345
									CHANNELS 3 Zrotation Yrotation Xrotation
									JOINT left_ring_2
									{
										OFFSET 0.023561 -0.016057 -0.001895
										CHANNELS 3 Zrotation Yrotation Xrotation
										JOINT left_ring_3
										{
											OFFSET 0.004257 -0.023548 0.000814
											CHANNELS 3 Zrotation Yrotation Xrotation
											End Site
											{
												OFFSET 0.000000 0.000000 0.000000
											}
										}
									}
								}
								JOINT left_thumb_1
								{
									OFFSET 0.040636 -0.017977 0.025611
									CHANNELS 3 Zrotation Yrotation Xrotation
									JOINT left_thumb_2
									{
										OFFSET 0.021637 -0.017639 0.011623
										CHANNELS 3 Zrotation Yrotation Xrotation
										JOINT left_thumb_3
										{
											OFFSET 0.024002 -0.008356 0.006548
											CHANNELS 3 Zrotation Yrotation Xrotation
											End Site
											{
												OFFSET 0.000000 0.000000 0.000000
											}
										}
									}
								}
							}
						}
					}
				}
				JOINT right_collar
				{
					OFFSET -0.047695 0.084339 -0.013400
					CHANNELS 3 Zrotation Yrotation Xrotation
					JOINT right_shoulder
					{
						OFFSET -0.102578 0.053524 -0.012669
						CHANNELS 3 Zrotation Yrotation Xrotation
						JOINT right_elbow
						{
							OFFSET -0.271150 -0.036492 -0.026467
							CHANNELS 3 Zrotation Yrotation Xrotation
							JOINT right_wrist
							{
								OFFSET -0.249267 -0.004533 -0.015325
								CHANNELS 3 Zrotation Yrotation Xrotation
								JOINT right_index_1
								{
									OFFSET -0.099881 -0.011783 0.019600
									CHANNELS 3 Zrotation Yrotation Xrotation
									JOINT right_index_2
									{
										OFFSET -0.030148 -0.011154 0.001151
										CHANNELS 3 Zrotation Yrotation Xrotation
										JOINT right_index_3
										{
											OFFSET -0.006505 -0.021577 -0.002432
											CHANNELS 3 Zrotation Yrotation Xrotation
											End Site
											{
												OFFSET 0.000000 0.000000 0.000000
											}
										}
									}
								}
								JOINT right_middle_1
								{
									OFFSET -0.107376 -0.009422 -0.003734
									CHANNELS 3 Zrotation Yrotation Xrotation
									JOINT right_middle_2
									{
										OFFSET -0.026472 -0.015218 -0.004641
										CHANNELS 3 Zrotation Yrotation Xrotation
										JOINT right_middle_3
										{
											OFFSET -0.005022 -0.023347 -0.001911
											CHANNELS 3 Zrotation Yrotation Xrotation
											End Site
											{
												OFFSET 0.000000 0.000000 0.000000
											}
										}
									}
								}
								JOINT right_pinky_1
								{
									OFFSET -0.082027 -0.017634 -0.043503
									CHANNELS 3 Zrotation Yrotation Xrotation
									JOINT right_pinky_2
									{
										OFFSET -0.012123 -0.014448 -0.005374
										CHANNELS 3 Zrotation Yrotation Xrotation
										JOINT right_pinky_3
										{
											OFFSET -0.003798 -0.018852 0.000167
											CHANNELS 3 Zrotation Yrotation Xrotation
											End Site
											{
												OFFSET 0.000000 0.000000 0.000000
											}
										}
									}
								}
								JOINT right_ring_1
								{
									OFFSET -0.095423 -0.012362 -0.027099
									CHANNELS 3 Zrotation Yrotation Xrotation
									JOINT right_ring_2
									{
										OFFSET -0.023561 -0.016057 -0.001895
										CHANNELS 3 Zrotation Yrotation Xrotation
										JOINT right_ring_3
										{
											OFFSET -0.004257 -0.023548 0.000816
											CHANNELS 3 Zrotation Yrotation Xrotation
											End Site
											{
												OFFSET 0.000000 0.000000 0.000000
											}
										}
									}
								}
								JOINT right_thumb_1
								{
									OFFSET -0.038613 -0.021074 0.025861
									CHANNELS 3 Zrotation Yrotation Xrotation
									JOINT right_thumb_2
									{
										OFFSET -0.021636 -0.017639 0.011623
										CHANNELS 3 Zrotation Yrotation Xrotation
										JOINT right_thumb_3
										{
											OFFSET -0.024004 -0.008353 0.006547
											CHANNELS 3 Zrotation Yrotation Xrotation
											End Site
											{
												OFFSET 0.000000 0.000000 0.000000
											}
										}
									}
								}
							}
						}
					}
				}
			}
		}
	}
}
MOTION
Frames: 4
Frame Time: 0.050000
-0.232704 1.008148 1.282196 -0.817424 0.360357 4.419002 -28.993931 -4.301923 -12.226827 37.344213 -2.200980 -2.154800 -6.365734 32.831927 112.183244 0.000000 0.000000 0.000000 29.800043 2.843257 -10.963297 -29.729080 -0.159953 -5.403165 5.054093 -27.162518 112.185708 0.000000 0.000000 0.000000 5.104917 -3.866562 34.054145 -15.998251 -13.314794 -65.500510 10.615820 -7.143964 38.163943 17.056202 6.373442 -28.054372 0.000000 0.000000 0.000000 145.213037 -1.008503 22.528201 114.679421 -14.645866 12.612726 -10.421989 37.562633 -7.518492 33.566084 7.721439 3.850982 24.888569 43.090805 25.983732 100.595422 -16.189179 7.539977 0.000000 0.000000 0.000000 32.781540 -21.001276 -14.315357 154.312991 3.746294 -11.457908 0.000000 0.000000 0.000000 73.879108 -21.503137 -91.746368 39.161882 -0.812119 7.972372 0.000000 0.000000 0.000000 58.825422 -34.286700 -57.633678 68.874094 10.438519 -17.948500 0.000000 0.000000 0.000000 93.581159 33.950160 74.866472 -25.712104 -29.725140 3.033353 0.000000 0.000000 0.000000 -135.892509 -6.012129 13.156986 -87.947913 -0.624318 13.361139 -62.921465 -68.661894 49.261591 -21.511774 -17.801841 -2.716837 -19.987940 -35.761116 21.656290 -84.873512 6.166568 -12.518081 0.000000 0.000000 0.000000 -17.584016 17.092699 -9.603314 -111.706395 1.120039 -20.498029 0.000000 0.000000 0.000000 -63.277205 29.513680 -84.717716 -33.834273 0.761662 10.641243 0.000000 0.000000 0.000000 -39.794001 38.577049 -45.783121 -60.558205 -4.931260 -9.253661 0.000000 0.000000 0.000000 -84.007712 -32.012710 54.511099 27.078093 22.103240 4.691159 0.000000 0.000000 0.000000 
-0.234589 1.008148 1.287476 -0.940585 2.976232 4.514771 -29.290775 -4.071213 -11.094468 37.750566 -1.910254 -3.369261 -4.046002 31.576531 111.507650 0.000000 0.000000 0.000000 29.618807 3.162936 -12.345984 -29.446884 0.199646 -3.743207 6.517606 -28.399634 111.927451 0.000000 0.000000 0.000000 6.448626 -4.444583 34.055878 -15.748562 -15.373187 -69.732845 8.355039 -10.849423 44.737432 18.032468 7.156936 -29.530175 0.000000 0.000000 0.000000 143.958094 -8.210588 16.537318 117.791363 -20.201992 -5.064881 -3.300456 32.495343 -4.357403 32.535760 6.996135 -39.241332 40.218962 28.002313 29.569173 147.694568 0.015559 -45.802033 0.000000 0.000000 0.000000 15.540534 -38.756549 -18.632345 65.325865 12.167916 -90.500356 0.000000 0.000000 0.000000 45.623867 -47.493800 -83.962506 32.434124 -0.182954 5.371428 0.000000 0.000000 0.000000 26.011657 -54.286905 -43.462719 51.026460 7.399634 -25.194887 0.000000 0.000000 0.000000 99.165529 17.243666 46.838921 -37.917788 -25.938652 10.109006 0.000000 0.000000 0.000000 -136.010226 -12.389190 16.573957 -89.589308 -3.301863 17.052911 -43.961973 -66.306605 32.848733 -19.859398 -16.332966 -0.352167 -16.179674 -34.081293 18.810859 -79.205304 6.706832 -8.342060 0.000000 0.000000 0.000000 -17.788174 14.314222 -7.670571 -90.311156 7.479506 -6.744608 0.000000 0.000000 0.000000 -63.412597 27.940812 -80.242241 -33.710521 0.799392 11.038406 0.000000 0.000000 0.000000 -37.907458 34.623539 -40.407764 -60.298313 -5.603658 -11.041103 0.000000 0.000000 0.000000 -81.272205 -33.426152 55.786553 27.101449 21.687965 4.705625 0.000000 0.000000 0.000000 
-0.238358 1.006859 1.292755 -1.827901 -4.346651 3.610339 -27.244144 -3.405338 -11.261550 37.352369 -1.594665 -2.519307 -4.779575 35.856818 114.022045 0.000000 0.000000 0.000000 30.549286 2.660156 -9.433752 -28.045713 0.106521 -5.315790 4.219646 -24.607134 111.637812 0.000000 0.000000 0.000000 3.780549 -3.312293 36.153244 -10.562339 -12.911552 -71.067342 -5.871747 -24.302144 47.512835 24.971127 6.822668 -19.983173 0.000000 0.000000 0.000000 135.748278 -29.360707 20.956389 121.793742 -26.615863 -21.885235 -0.597657 28.112611 -3.763921 30.006469 3.659754 -56.516166 34.853818 17.976459 18.476780 134.811498 21.069095 -99.897680 0.000000 0.000000 0.000000 -10.259694 -37.689792 -9.057325 44.437722 -6.021251 -80.110588 0.000000 0.000000 0.000000 27.071915 -52.811776 -69.127518 29.164403 0.008557 4.566712 0.000000 0.000000 0.000000 0.235243 -56.933601 -24.714500 45.733498 5.023263 -23.701284 0.000000 0.000000 0.000000 95.628160 13.374776 26.747439 -44.641330 -19.151378 13.919975 0.000000 0.000000 0.000000 -131.817944 -33.324035 11.015565 -91.567357 -15.417938 25.749427 -17.592984 -64.493519 13.370968 -18.447755 -13.150444 14.752502 -9.088809 -38.410431 16.842080 -72.662609 6.410948 -0.781236 0.000000 0.000000 0.000000 -15.865804 8.333432 -3.463827 -98.981171 11.649747 10.893221 0.000000 0.000000 0.000000 -68.299021 22.085001 -76.831098 -37.622239 0.695084 7.917040 0.000000 0.000000 0.000000 -40.089101 29.080379 -37.110003 -66.427478 -6.222916 -8.237498 0.000000 0.000000 0.000000 -75.484982 -39.220360 63.014316 21.983497 22.262169 2.172675 0.000000 0.000000 0.000000 
-0.238358 1.007504 1.292755 -3.484161 -14.785368 5.679718 -25.186275 -3.876297 -15.397403 38.461793 -1.776155 0.005518 -12.923759 40.088863 109.965440 0.000000 0.000000 0.000000 32.120963 3.252733 -8.460322 -26.678461 0.009883 -7.513266 0.014215 -19.528467 111.807980 0.000000 0.000000 0.000000 2.385659 -1.976884 33.606876 -8.966317 -9.450482 -67.811699 -0.722306 -19.644141 41.877918 24.298974 5.771411 -17.696267 0.000000 0.000000 0.000000 135.728613 -30.264851 24.225193 120.660215 -24.512805 -13.788026 -4.574060 28.635988 -5.023705 30.228775 7.685510 -52.290608 35.443732 24.318984 22.689094 164.942352 12.838247 -57.977311 0.000000 0.000000 0.000000 -12.659874 -42.593597 -9.112944 69.173937 11.266641 -85.064669 0.000000 0.000000 0.000000 38.661369 -53.255761 -80.213831 29.047875 -0.102339 7.937817 0.000000 0.000000 0.000000 5.398698 -60.414801 -30.114061 52.040036 6.643314 -22.203104 0.000000 0.000000 0.000000 99.448653 13.541454 32.915867 -45.236740 -17.186249 14.124260 0.000000 0.000000 0.000000 -131.560416 -39.143505 12.387994 -91.893842 -17.569830 28.081237 -7.512340 -57.251026 5.731698 -17.213148 -9.727543 18.660732 -6.209552 -39.214483 15.539276 -75.119381 6.471038 1.364133 0.000000 0.000000 0.000000 -15.863829 5.935026 -1.747758 -93.046785 11.696190 16.819135 0.000000 0.000000 0.000000 -72.909688 18.510857 -75.427787 -36.331120 1.131119 12.721446 0.000000 0.000000 0.000000 -45.471896 26.060129 -37.307018 -63.966968 -2.233862 2.442519 0.000000 0.000000 0.000000 -75.068613 -40.937136 65.092061 20.682854 21.768056 1.643275 0.000000 0.000000 0.000000 
